<svg width="32" height="32" viewBox="0 0 32 32" fill="none" xmlns="http://www.w3.org/2000/svg">
<path d="M14.6666 17.3334H7.99996C7.62218 17.3334 7.30551 17.2056 7.04996 16.9501C6.7944 16.6945 6.66663 16.3779 6.66663 16.0001C6.66663 15.6223 6.7944 15.3056 7.04996 15.0501C7.30551 14.7945 7.62218 14.6667 7.99996 14.6667H14.6666V8.00008C14.6666 7.6223 14.7944 7.30564 15.05 7.05008C15.3055 6.79453 15.6222 6.66675 16 6.66675C16.3777 6.66675 16.6944 6.79453 16.95 7.05008C17.2055 7.30564 17.3333 7.6223 17.3333 8.00008V14.6667H24C24.3777 14.6667 24.6944 14.7945 24.95 15.0501C25.2055 15.3056 25.3333 15.6223 25.3333 16.0001C25.3333 16.3779 25.2055 16.6945 24.95 16.9501C24.6944 17.2056 24.3777 17.3334 24 17.3334H17.3333V24.0001C17.3333 24.3779 17.2055 24.6945 16.95 24.9501C16.6944 25.2056 16.3777 25.3334 16 25.3334C15.6222 25.3334 15.3055 25.2056 15.05 24.9501C14.7944 24.6945 14.6666 24.3779 14.6666 24.0001V17.3334Z" fill="#1E2939"/>
</svg>
