<svg width="32" height="32" viewBox="0 0 32 32" fill="none" xmlns="http://www.w3.org/2000/svg">
<path d="M15.05 13.7167C14.7944 13.9722 14.6667 14.2889 14.6667 14.6667V18.9333L13.4667 17.7333C13.2222 17.4889 12.9111 17.3667 12.5333 17.3667C12.1556 17.3667 11.8444 17.4889 11.6 17.7333C11.3556 17.9778 11.2333 18.2889 11.2333 18.6667C11.2333 19.0444 11.3556 19.3556 11.6 19.6L15.0667 23.0667C15.3333 23.3333 15.6444 23.4667 16 23.4667C16.3556 23.4667 16.6667 23.3333 16.9333 23.0667L20.4 19.6C20.6444 19.3556 20.7667 19.0444 20.7667 18.6667C20.7667 18.2889 20.6444 17.9778 20.4 17.7333C20.1556 17.4889 19.8444 17.3667 19.4667 17.3667C19.0889 17.3667 18.7778 17.4889 18.5333 17.7333L17.3333 18.9333V14.6667C17.3333 14.2889 17.2056 13.9722 16.95 13.7167C16.6944 13.4611 16.3778 13.3333 16 13.3333C15.6222 13.3333 15.3056 13.4611 15.05 13.7167ZM6.66667 10.6667V25.3333H25.3333V10.6667H6.66667ZM6.66667 28C5.93333 28 5.30556 27.7389 4.78333 27.2167C4.26111 26.6944 4 26.0667 4 25.3333V8.7C4 8.38889 4.05 8.08889 4.15 7.8C4.25 7.51111 4.4 7.24444 4.6 7L6.26667 4.96667C6.51111 4.65556 6.81667 4.41667 7.18333 4.25C7.55 4.08333 7.93333 4 8.33333 4H23.6667C24.0667 4 24.45 4.08333 24.8167 4.25C25.1833 4.41667 25.4889 4.65556 25.7333 4.96667L27.4 7C27.6 7.24444 27.75 7.51111 27.85 7.8C27.95 8.08889 28 8.38889 28 8.7V25.3333C28 26.0667 27.7389 26.6944 27.2167 27.2167C26.6944 27.7389 26.0667 28 25.3333 28H6.66667ZM7.2 8H24.8L23.6667 6.66667H8.33333L7.2 8Z" fill="#1E2939"/>
</svg>
