<svg width="32" height="32" viewBox="0 0 32 32" fill="none" xmlns="http://www.w3.org/2000/svg">
<path d="M6.66667 28C5.93333 28 5.30556 27.7389 4.78333 27.2167C4.26111 26.6944 4 26.0667 4 25.3333V6.66667C4 5.93333 4.26111 5.30556 4.78333 4.78333C5.30556 4.26111 5.93333 4 6.66667 4H25.3333C26.0667 4 26.6944 4.26111 27.2167 4.78333C27.7389 5.30556 28 5.93333 28 6.66667V25.3333C28 26.0667 27.7389 26.6944 27.2167 27.2167C26.6944 27.7389 26.0667 28 25.3333 28H6.66667ZM6.66667 25.3333H25.3333V6.66667H6.66667V25.3333ZM10.6667 22.6667H17.3333C17.7111 22.6667 18.0278 22.5389 18.2833 22.2833C18.5389 22.0278 18.6667 21.7111 18.6667 21.3333C18.6667 20.9556 18.5389 20.6389 18.2833 20.3833C18.0278 20.1278 17.7111 20 17.3333 20H10.6667C10.2889 20 9.97222 20.1278 9.71667 20.3833C9.46111 20.6389 9.33333 20.9556 9.33333 21.3333C9.33333 21.7111 9.46111 22.0278 9.71667 22.2833C9.97222 22.5389 10.2889 22.6667 10.6667 22.6667ZM10.6667 17.3333H21.3333C21.7111 17.3333 22.0278 17.2056 22.2833 16.95C22.5389 16.6944 22.6667 16.3778 22.6667 16C22.6667 15.6222 22.5389 15.3056 22.2833 15.05C22.0278 14.7944 21.7111 14.6667 21.3333 14.6667H10.6667C10.2889 14.6667 9.97222 14.7944 9.71667 15.05C9.46111 15.3056 9.33333 15.6222 9.33333 16C9.33333 16.3778 9.46111 16.6944 9.71667 16.95C9.97222 17.2056 10.2889 17.3333 10.6667 17.3333ZM10.6667 12H21.3333C21.7111 12 22.0278 11.8722 22.2833 11.6167C22.5389 11.3611 22.6667 11.0444 22.6667 10.6667C22.6667 10.2889 22.5389 9.97222 22.2833 9.71667C22.0278 9.46111 21.7111 9.33333 21.3333 9.33333H10.6667C10.2889 9.33333 9.97222 9.46111 9.71667 9.71667C9.46111 9.97222 9.33333 10.2889 9.33333 10.6667C9.33333 11.0444 9.46111 11.3611 9.71667 11.6167C9.97222 11.8722 10.2889 12 10.6667 12Z" fill="#1E2939"/>
</svg>
