<svg width="32" height="32" viewBox="0 0 32 32" fill="none" xmlns="http://www.w3.org/2000/svg">
<path d="M16 24L10.4 26.4C9.51107 26.7778 8.66663 26.7056 7.86663 26.1833C7.06663 25.6611 6.66663 24.9222 6.66663 23.9667V6.66667C6.66663 5.93333 6.92774 5.30556 7.44996 4.78333C7.97218 4.26111 8.59996 4 9.33329 4H22.6666C23.4 4 24.0277 4.26111 24.55 4.78333C25.0722 5.30556 25.3333 5.93333 25.3333 6.66667V23.9667C25.3333 24.9222 24.9333 25.6611 24.1333 26.1833C23.3333 26.7056 22.4888 26.7778 21.6 26.4L16 24ZM16 21.0667L22.6666 23.9333V6.66667H9.33329V23.9333L16 21.0667ZM16 6.66667H9.33329H22.6666H16Z" fill="#1E2939"/>
</svg>
