<svg width="32" height="32" viewBox="0 0 32 32" fill="none" xmlns="http://www.w3.org/2000/svg">
<path d="M14.1334 18.4001L11.2667 15.5334C11.0223 15.289 10.7112 15.1667 10.3334 15.1667C9.95564 15.1667 9.64453 15.289 9.40008 15.5334C9.15564 15.7779 9.03341 16.089 9.03341 16.4667C9.03341 16.8445 9.15564 17.1556 9.40008 17.4001L13.2001 21.2001C13.4667 21.4667 13.7779 21.6001 14.1334 21.6001C14.489 21.6001 14.8001 21.4667 15.0667 21.2001L22.6001 13.6667C22.8445 13.4223 22.9667 13.1112 22.9667 12.7334C22.9667 12.3556 22.8445 12.0445 22.6001 11.8001C22.3556 11.5556 22.0445 11.4334 21.6667 11.4334C21.289 11.4334 20.9779 11.5556 20.7334 11.8001L14.1334 18.4001ZM16.0001 29.3334C14.1556 29.3334 12.4223 28.9834 10.8001 28.2834C9.17786 27.5834 7.76675 26.6334 6.56675 25.4334C5.36675 24.2334 4.41675 22.8223 3.71675 21.2001C3.01675 19.5779 2.66675 17.8445 2.66675 16.0001C2.66675 14.1556 3.01675 12.4223 3.71675 10.8001C4.41675 9.17786 5.36675 7.76675 6.56675 6.56675C7.76675 5.36675 9.17786 4.41675 10.8001 3.71675C12.4223 3.01675 14.1556 2.66675 16.0001 2.66675C17.8445 2.66675 19.5779 3.01675 21.2001 3.71675C22.8223 4.41675 24.2334 5.36675 25.4334 6.56675C26.6334 7.76675 27.5834 9.17786 28.2834 10.8001C28.9834 12.4223 29.3334 14.1556 29.3334 16.0001C29.3334 17.8445 28.9834 19.5779 28.2834 21.2001C27.5834 22.8223 26.6334 24.2334 25.4334 25.4334C24.2334 26.6334 22.8223 27.5834 21.2001 28.2834C19.5779 28.9834 17.8445 29.3334 16.0001 29.3334ZM16.0001 26.6667C18.9779 26.6667 21.5001 25.6334 23.5667 23.5667C25.6334 21.5001 26.6667 18.9779 26.6667 16.0001C26.6667 13.0223 25.6334 10.5001 23.5667 8.43341C21.5001 6.36675 18.9779 5.33341 16.0001 5.33341C13.0223 5.33341 10.5001 6.36675 8.43341 8.43341C6.36675 10.5001 5.33341 13.0223 5.33341 16.0001C5.33341 18.9779 6.36675 21.5001 8.43341 23.5667C10.5001 25.6334 13.0223 26.6667 16.0001 26.6667Z" fill="#1E2939"/>
</svg>
