<svg width="32" height="32" viewBox="0 0 32 32" fill="none" xmlns="http://www.w3.org/2000/svg">
<path d="M9.33325 28C8.59992 28 7.97214 27.7389 7.44992 27.2167C6.9277 26.6944 6.66659 26.0667 6.66659 25.3333V8C6.28881 8 5.97214 7.87222 5.71659 7.61667C5.46103 7.36111 5.33325 7.04444 5.33325 6.66667C5.33325 6.28889 5.46103 5.97222 5.71659 5.71667C5.97214 5.46111 6.28881 5.33333 6.66659 5.33333H11.9999C11.9999 4.95556 12.1277 4.63889 12.3833 4.38333C12.6388 4.12778 12.9555 4 13.3333 4H18.6666C19.0444 4 19.361 4.12778 19.6166 4.38333C19.8721 4.63889 19.9999 4.95556 19.9999 5.33333H25.3333C25.711 5.33333 26.0277 5.46111 26.2833 5.71667C26.5388 5.97222 26.6666 6.28889 26.6666 6.66667C26.6666 7.04444 26.5388 7.36111 26.2833 7.61667C26.0277 7.87222 25.711 8 25.3333 8V25.3333C25.3333 26.0667 25.0721 26.6944 24.5499 27.2167C24.0277 27.7389 23.3999 28 22.6666 28H9.33325ZM22.6666 8H9.33325V25.3333H22.6666V8ZM15.9999 18.5333L18.5333 21.0667C18.7777 21.3111 19.0888 21.4333 19.4666 21.4333C19.8444 21.4333 20.1555 21.3111 20.3999 21.0667C20.6444 20.8222 20.7666 20.5111 20.7666 20.1333C20.7666 19.7556 20.6444 19.4444 20.3999 19.2L17.8666 16.6667L20.3999 14.1333C20.6444 13.8889 20.7666 13.5778 20.7666 13.2C20.7666 12.8222 20.6444 12.5111 20.3999 12.2667C20.1555 12.0222 19.8444 11.9 19.4666 11.9C19.0888 11.9 18.7777 12.0222 18.5333 12.2667L15.9999 14.8L13.4666 12.2667C13.2221 12.0222 12.911 11.9 12.5333 11.9C12.1555 11.9 11.8444 12.0222 11.5999 12.2667C11.3555 12.5111 11.2333 12.8222 11.2333 13.2C11.2333 13.5778 11.3555 13.8889 11.5999 14.1333L14.1333 16.6667L11.5999 19.2C11.3555 19.4444 11.2333 19.7556 11.2333 20.1333C11.2333 20.5111 11.3555 20.8222 11.5999 21.0667C11.8444 21.3111 12.1555 21.4333 12.5333 21.4333C12.911 21.4333 13.2221 21.3111 13.4666 21.0667L15.9999 18.5333Z" fill="#1E2939"/>
</svg>
