<svg width="32" height="32" viewBox="0 0 32 32" fill="none" xmlns="http://www.w3.org/2000/svg">
<path d="M5.33341 26.6666C4.60008 26.6666 3.9723 26.4055 3.45008 25.8833C2.92786 25.361 2.66675 24.7333 2.66675 23.9999V7.99992C2.66675 7.26659 2.92786 6.63881 3.45008 6.11659C3.9723 5.59436 4.60008 5.33325 5.33341 5.33325H26.6667C27.4001 5.33325 28.0279 5.59436 28.5501 6.11659C29.0723 6.63881 29.3334 7.26659 29.3334 7.99992V23.9999C29.3334 24.7333 29.0723 25.361 28.5501 25.8833C28.0279 26.4055 27.4001 26.6666 26.6667 26.6666H5.33341ZM26.6667 10.6666L16.7001 16.8999C16.589 16.9666 16.4723 17.0166 16.3501 17.0499C16.2279 17.0833 16.1112 17.0999 16.0001 17.0999C15.889 17.0999 15.7723 17.0833 15.6501 17.0499C15.5279 17.0166 15.4112 16.9666 15.3001 16.8999L5.33341 10.6666V23.9999H26.6667V10.6666ZM16.0001 14.6666L26.6667 7.99992H5.33341L16.0001 14.6666ZM5.33341 10.9999V9.03325V9.06659V9.04992V10.9999Z" fill="#1E2939"/>
</svg>
