<svg width="32" height="32" viewBox="0 0 32 32" fill="none" xmlns="http://www.w3.org/2000/svg">
<path d="M7.99992 29.3333C7.26659 29.3333 6.63881 29.0721 6.11659 28.5499C5.59436 28.0277 5.33325 27.3999 5.33325 26.6666V13.3333C5.33325 12.5999 5.59436 11.9721 6.11659 11.4499C6.63881 10.9277 7.26659 10.6666 7.99992 10.6666H9.33325V7.99992C9.33325 6.15547 9.98325 4.58325 11.2833 3.28325C12.5833 1.98325 14.1555 1.33325 15.9999 1.33325C17.8444 1.33325 19.4166 1.98325 20.7166 3.28325C22.0166 4.58325 22.6666 6.15547 22.6666 7.99992V10.6666H23.9999C24.7333 10.6666 25.361 10.9277 25.8833 11.4499C26.4055 11.9721 26.6666 12.5999 26.6666 13.3333V26.6666C26.6666 27.3999 26.4055 28.0277 25.8833 28.5499C25.361 29.0721 24.7333 29.3333 23.9999 29.3333H7.99992ZM7.99992 26.6666H23.9999V13.3333H7.99992V26.6666ZM17.8833 21.8833C18.4055 21.361 18.6666 20.7333 18.6666 19.9999C18.6666 19.2666 18.4055 18.6388 17.8833 18.1166C17.361 17.5944 16.7333 17.3333 15.9999 17.3333C15.2666 17.3333 14.6388 17.5944 14.1166 18.1166C13.5944 18.6388 13.3333 19.2666 13.3333 19.9999C13.3333 20.7333 13.5944 21.361 14.1166 21.8833C14.6388 22.4055 15.2666 22.6666 15.9999 22.6666C16.7333 22.6666 17.361 22.4055 17.8833 21.8833ZM11.9999 10.6666H19.9999V7.99992C19.9999 6.88881 19.611 5.94436 18.8333 5.16659C18.0555 4.38881 17.111 3.99992 15.9999 3.99992C14.8888 3.99992 13.9444 4.38881 13.1666 5.16659C12.3888 5.94436 11.9999 6.88881 11.9999 7.99992V10.6666Z" fill="#1E2939"/>
</svg>
