<svg width="32" height="32" viewBox="0 0 32 32" fill="none" xmlns="http://www.w3.org/2000/svg">
<path d="M14.6667 26.6666C14.2889 26.6666 13.9722 26.5388 13.7167 26.2833C13.4611 26.0277 13.3334 25.711 13.3334 25.3333V17.3333L5.60003 7.46659C5.26669 7.02214 5.21669 6.55547 5.45003 6.06659C5.68336 5.5777 6.08891 5.33325 6.66669 5.33325H25.3334C25.9111 5.33325 26.3167 5.5777 26.55 6.06659C26.7834 6.55547 26.7334 7.02214 26.4 7.46659L18.6667 17.3333V25.3333C18.6667 25.711 18.5389 26.0277 18.2834 26.2833C18.0278 26.5388 17.7111 26.6666 17.3334 26.6666H14.6667ZM16 16.3999L22.6 7.99992H9.40003L16 16.3999Z" fill="#1E2939"/>
</svg>
