<svg width="32" height="32" viewBox="0 0 32 32" fill="none" xmlns="http://www.w3.org/2000/svg">
<path d="M17.3333 28C16.9556 28 16.6389 27.8722 16.3833 27.6167C16.1278 27.3611 16 27.0444 16 26.6667C16 26.2889 16.1278 25.9722 16.3833 25.7167C16.6389 25.4611 16.9556 25.3333 17.3333 25.3333H25.3333V6.66667H17.3333C16.9556 6.66667 16.6389 6.53889 16.3833 6.28333C16.1278 6.02778 16 5.71111 16 5.33333C16 4.95556 16.1278 4.63889 16.3833 4.38333C16.6389 4.12778 16.9556 4 17.3333 4H25.3333C26.0667 4 26.6944 4.26111 27.2167 4.78333C27.7389 5.30556 28 5.93333 28 6.66667V25.3333C28 26.0667 27.7389 26.6944 27.2167 27.2167C26.6944 27.7389 26.0667 28 25.3333 28H17.3333ZM14.9 17.3333H5.33333C4.95556 17.3333 4.63889 17.2056 4.38333 16.95C4.12778 16.6944 4 16.3778 4 16C4 15.6222 4.12778 15.3056 4.38333 15.05C4.63889 14.7944 4.95556 14.6667 5.33333 14.6667H14.9L12.4 12.1667C12.1556 11.9222 12.0333 11.6222 12.0333 11.2667C12.0333 10.9111 12.1556 10.6 12.4 10.3333C12.6444 10.0667 12.9556 9.92778 13.3333 9.91667C13.7111 9.90556 14.0333 10.0333 14.3 10.3L19.0667 15.0667C19.3333 15.3333 19.4667 15.6444 19.4667 16C19.4667 16.3556 19.3333 16.6667 19.0667 16.9333L14.3 21.7C14.0333 21.9667 13.7167 22.0944 13.35 22.0833C12.9833 22.0722 12.6667 21.9333 12.4 21.6667C12.1556 21.4 12.0389 21.0833 12.05 20.7167C12.0611 20.35 12.1889 20.0444 12.4333 19.8L14.9 17.3333Z" fill="#1E2939"/>
</svg>
