<svg width="32" height="32" viewBox="0 0 32 32" fill="none" xmlns="http://www.w3.org/2000/svg">
<path d="M6.66659 25.3334C6.28881 25.3334 5.97214 25.2056 5.71659 24.9501C5.46103 24.6945 5.33325 24.3779 5.33325 24.0001C5.33325 23.6223 5.46103 23.3056 5.71659 23.0501C5.97214 22.7945 6.28881 22.6667 6.66659 22.6667H7.99992V13.3334C7.99992 11.489 8.55547 9.85008 9.66659 8.41675C10.7777 6.98341 12.2221 6.04453 13.9999 5.60008V4.66675C13.9999 4.11119 14.1944 3.63897 14.5833 3.25008C14.9721 2.86119 15.4444 2.66675 15.9999 2.66675C16.5555 2.66675 17.0277 2.86119 17.4166 3.25008C17.8055 3.63897 17.9999 4.11119 17.9999 4.66675V5.60008C19.7777 6.04453 21.2221 6.98341 22.3333 8.41675C23.4444 9.85008 23.9999 11.489 23.9999 13.3334V22.6667H25.3333C25.711 22.6667 26.0277 22.7945 26.2833 23.0501C26.5388 23.3056 26.6666 23.6223 26.6666 24.0001C26.6666 24.3779 26.5388 24.6945 26.2833 24.9501C26.0277 25.2056 25.711 25.3334 25.3333 25.3334H6.66659ZM15.9999 29.3334C15.2666 29.3334 14.6388 29.0723 14.1166 28.5501C13.5944 28.0279 13.3333 27.4001 13.3333 26.6667H18.6666C18.6666 27.4001 18.4055 28.0279 17.8833 28.5501C17.361 29.0723 16.7333 29.3334 15.9999 29.3334ZM10.6666 22.6667H21.3333V13.3334C21.3333 11.8667 20.811 10.6112 19.7666 9.56675C18.7221 8.5223 17.4666 8.00008 15.9999 8.00008C14.5333 8.00008 13.2777 8.5223 12.2333 9.56675C11.1888 10.6112 10.6666 11.8667 10.6666 13.3334V22.6667Z" fill="#1E2939"/>
</svg>
