<svg width="32" height="32" viewBox="0 0 32 32" fill="none" xmlns="http://www.w3.org/2000/svg">
<path d="M23.9999 14.6666H21.3333C20.9555 14.6666 20.6388 14.5388 20.3833 14.2833C20.1277 14.0277 19.9999 13.711 19.9999 13.3333C19.9999 12.9555 20.1277 12.6388 20.3833 12.3833C20.6388 12.1277 20.9555 11.9999 21.3333 11.9999H23.9999V9.33325C23.9999 8.95547 24.1277 8.63881 24.3833 8.38325C24.6388 8.1277 24.9555 7.99992 25.3333 7.99992C25.711 7.99992 26.0277 8.1277 26.2833 8.38325C26.5388 8.63881 26.6666 8.95547 26.6666 9.33325V11.9999H29.3333C29.711 11.9999 30.0277 12.1277 30.2833 12.3833C30.5388 12.6388 30.6666 12.9555 30.6666 13.3333C30.6666 13.711 30.5388 14.0277 30.2833 14.2833C30.0277 14.5388 29.711 14.6666 29.3333 14.6666H26.6666V17.3333C26.6666 17.711 26.5388 18.0277 26.2833 18.2833C26.0277 18.5388 25.711 18.6666 25.3333 18.6666C24.9555 18.6666 24.6388 18.5388 24.3833 18.2833C24.1277 18.0277 23.9999 17.711 23.9999 17.3333V14.6666ZM8.23325 14.4333C7.18881 13.3888 6.66659 12.1333 6.66659 10.6666C6.66659 9.19992 7.18881 7.94436 8.23325 6.89992C9.2777 5.85547 10.5333 5.33325 11.9999 5.33325C13.4666 5.33325 14.7221 5.85547 15.7666 6.89992C16.811 7.94436 17.3333 9.19992 17.3333 10.6666C17.3333 12.1333 16.811 13.3888 15.7666 14.4333C14.7221 15.4777 13.4666 15.9999 11.9999 15.9999C10.5333 15.9999 9.2777 15.4777 8.23325 14.4333ZM1.33325 23.9999V22.9333C1.33325 22.1777 1.5277 21.4833 1.91659 20.8499C2.30547 20.2166 2.82214 19.7333 3.46659 19.3999C4.84436 18.711 6.24436 18.1944 7.66659 17.8499C9.08881 17.5055 10.5333 17.3333 11.9999 17.3333C13.4666 17.3333 14.911 17.5055 16.3333 17.8499C17.7555 18.1944 19.1555 18.711 20.5333 19.3999C21.1777 19.7333 21.6944 20.2166 22.0833 20.8499C22.4721 21.4833 22.6666 22.1777 22.6666 22.9333V23.9999C22.6666 24.7333 22.4055 25.361 21.8833 25.8833C21.361 26.4055 20.7333 26.6666 19.9999 26.6666H3.99992C3.26659 26.6666 2.63881 26.4055 2.11659 25.8833C1.59436 25.361 1.33325 24.7333 1.33325 23.9999ZM3.99992 23.9999H19.9999V22.9333C19.9999 22.6888 19.9388 22.4666 19.8166 22.2666C19.6944 22.0666 19.5333 21.911 19.3333 21.7999C18.1333 21.1999 16.9221 20.7499 15.6999 20.4499C14.4777 20.1499 13.2444 19.9999 11.9999 19.9999C10.7555 19.9999 9.52214 20.1499 8.29992 20.4499C7.0777 20.7499 5.86659 21.1999 4.66659 21.7999C4.46659 21.911 4.30547 22.0666 4.18325 22.2666C4.06103 22.4666 3.99992 22.6888 3.99992 22.9333V23.9999ZM13.8833 12.5499C14.4055 12.0277 14.6666 11.3999 14.6666 10.6666C14.6666 9.93325 14.4055 9.30547 13.8833 8.78325C13.361 8.26103 12.7333 7.99992 11.9999 7.99992C11.2666 7.99992 10.6388 8.26103 10.1166 8.78325C9.59436 9.30547 9.33325 9.93325 9.33325 10.6666C9.33325 11.3999 9.59436 12.0277 10.1166 12.5499C10.6388 13.0721 11.2666 13.3333 11.9999 13.3333C12.7333 13.3333 13.361 13.0721 13.8833 12.5499Z" fill="#1E2939"/>
</svg>
