<svg width="32" height="32" viewBox="0 0 32 32" fill="none" xmlns="http://www.w3.org/2000/svg">
<path d="M28.0001 10.6666C28.7112 10.6666 29.3334 10.9333 29.8667 11.4666C30.4001 12 30.6667 12.6222 30.6667 13.3333V16C30.6667 16.1555 30.6445 16.3222 30.6001 16.5C30.5556 16.6777 30.5112 16.8444 30.4667 17L26.4667 26.4C26.2667 26.8444 25.9334 27.2222 25.4667 27.5333C25.0001 27.8444 24.5112 28 24.0001 28H9.33342V10.6666L17.3334 2.7333C17.6667 2.39997 18.0612 2.20552 18.5167 2.14997C18.9723 2.09441 19.4112 2.17775 19.8334 2.39997C20.2556 2.62219 20.5667 2.9333 20.7667 3.3333C20.9667 3.7333 21.0112 4.14441 20.9001 4.56663L19.4001 10.6666H28.0001ZM12.0001 11.8V25.3333H24.0001L28.0001 16V13.3333H16.0001L17.8001 5.99997L12.0001 11.8ZM5.33341 28C4.60008 28 3.9723 27.7389 3.45008 27.2166C2.92786 26.6944 2.66675 26.0666 2.66675 25.3333V13.3333C2.66675 12.6 2.92786 11.9722 3.45008 11.45C3.9723 10.9277 4.60008 10.6666 5.33341 10.6666H9.33342V13.3333H5.33341V25.3333H9.33342V28H5.33341Z" fill="#1E2939"/>
</svg>
