<svg width="32" height="32" viewBox="0 0 32 32" fill="none" xmlns="http://www.w3.org/2000/svg">
<path d="M3.99992 21.3333C3.28881 21.3333 2.66659 21.0667 2.13325 20.5333C1.59992 20 1.33325 19.3778 1.33325 18.6667V16C1.33325 15.8444 1.35547 15.6778 1.39992 15.5C1.44436 15.3222 1.48881 15.1556 1.53325 15L5.53325 5.6C5.73325 5.15556 6.06659 4.77778 6.53325 4.46667C6.99992 4.15556 7.48881 4 7.99992 4H22.6666V21.3333L14.6666 29.2667C14.3333 29.6 13.9388 29.7944 13.4833 29.85C13.0277 29.9056 12.5888 29.8222 12.1666 29.6C11.7444 29.3778 11.4333 29.0667 11.2333 28.6667C11.0333 28.2667 10.9888 27.8556 11.0999 27.4333L12.5999 21.3333H3.99992ZM19.9999 20.2V6.66667H7.99992L3.99992 16V18.6667H15.9999L14.1999 26L19.9999 20.2ZM26.6666 4C27.3999 4 28.0277 4.26111 28.5499 4.78333C29.0721 5.30556 29.3333 5.93333 29.3333 6.66667V18.6667C29.3333 19.4 29.0721 20.0278 28.5499 20.55C28.0277 21.0722 27.3999 21.3333 26.6666 21.3333H22.6666V18.6667H26.6666V6.66667H22.6666V4H26.6666Z" fill="#1E2939"/>
</svg>
