<svg width="32" height="32" viewBox="0 0 32 32" fill="none" xmlns="http://www.w3.org/2000/svg">
<path d="M16 26.6666C13.0223 26.6666 10.5 25.6333 8.43337 23.5666C6.36671 21.4999 5.33337 18.9777 5.33337 15.9999C5.33337 13.0221 6.36671 10.4999 8.43337 8.43325C10.5 6.36659 13.0223 5.33325 16 5.33325C17.5334 5.33325 19 5.64992 20.4 6.28325C21.8 6.91659 23 7.82214 24 8.99992V6.66659C24 6.28881 24.1278 5.97214 24.3834 5.71659C24.6389 5.46103 24.9556 5.33325 25.3334 5.33325C25.7112 5.33325 26.0278 5.46103 26.2834 5.71659C26.5389 5.97214 26.6667 6.28881 26.6667 6.66659V13.3333C26.6667 13.711 26.5389 14.0277 26.2834 14.2833C26.0278 14.5388 25.7112 14.6666 25.3334 14.6666H18.6667C18.2889 14.6666 17.9723 14.5388 17.7167 14.2833C17.4612 14.0277 17.3334 13.711 17.3334 13.3333C17.3334 12.9555 17.4612 12.6388 17.7167 12.3833C17.9723 12.1277 18.2889 11.9999 18.6667 11.9999H22.9334C22.2223 10.7555 21.25 9.7777 20.0167 9.06659C18.7834 8.35547 17.4445 7.99992 16 7.99992C13.7778 7.99992 11.8889 8.7777 10.3334 10.3333C8.77782 11.8888 8.00004 13.7777 8.00004 15.9999C8.00004 18.2221 8.77782 20.111 10.3334 21.6666C11.8889 23.2221 13.7778 23.9999 16 23.9999C17.5112 23.9999 18.8945 23.6166 20.15 22.8499C21.4056 22.0833 22.3778 21.0555 23.0667 19.7666C23.2445 19.4555 23.4945 19.2388 23.8167 19.1166C24.1389 18.9944 24.4667 18.9888 24.8 19.0999C25.1556 19.211 25.4112 19.4444 25.5667 19.7999C25.7223 20.1555 25.7112 20.4888 25.5334 20.7999C24.6223 22.5777 23.3223 23.9999 21.6334 25.0666C19.9445 26.1333 18.0667 26.6666 16 26.6666Z" fill="#1E2939"/>
</svg>
