<svg width="32" height="32" viewBox="0 0 32 32" fill="none" xmlns="http://www.w3.org/2000/svg">
<path d="M16 22.6667C16.3778 22.6667 16.6944 22.5389 16.95 22.2833C17.2056 22.0278 17.3333 21.7111 17.3333 21.3333C17.3333 20.9556 17.2056 20.6389 16.95 20.3833C16.6944 20.1278 16.3778 20 16 20C15.6222 20 15.3056 20.1278 15.05 20.3833C14.7944 20.6389 14.6667 20.9556 14.6667 21.3333C14.6667 21.7111 14.7944 22.0278 15.05 22.2833C15.3056 22.5389 15.6222 22.6667 16 22.6667ZM16.95 16.95C17.2056 16.6944 17.3333 16.3778 17.3333 16V10.6667C17.3333 10.2889 17.2056 9.97222 16.95 9.71667C16.6944 9.46111 16.3778 9.33333 16 9.33333C15.6222 9.33333 15.3056 9.46111 15.05 9.71667C14.7944 9.97222 14.6667 10.2889 14.6667 10.6667V16C14.6667 16.3778 14.7944 16.6944 15.05 16.95C15.3056 17.2056 15.6222 17.3333 16 17.3333C16.3778 17.3333 16.6944 17.2056 16.95 16.95ZM12.1 28C11.7444 28 11.4056 27.9333 11.0833 27.8C10.7611 27.6667 10.4778 27.4778 10.2333 27.2333L4.76667 21.7667C4.52222 21.5222 4.33333 21.2389 4.2 20.9167C4.06667 20.5944 4 20.2556 4 19.9V12.1C4 11.7444 4.06667 11.4056 4.2 11.0833C4.33333 10.7611 4.52222 10.4778 4.76667 10.2333L10.2333 4.76667C10.4778 4.52222 10.7611 4.33333 11.0833 4.2C11.4056 4.06667 11.7444 4 12.1 4H19.9C20.2556 4 20.5944 4.06667 20.9167 4.2C21.2389 4.33333 21.5222 4.52222 21.7667 4.76667L27.2333 10.2333C27.4778 10.4778 27.6667 10.7611 27.8 11.0833C27.9333 11.4056 28 11.7444 28 12.1V19.9C28 20.2556 27.9333 20.5944 27.8 20.9167C27.6667 21.2389 27.4778 21.5222 27.2333 21.7667L21.7667 27.2333C21.5222 27.4778 21.2389 27.6667 20.9167 27.8C20.5944 27.9333 20.2556 28 19.9 28H12.1ZM12.1333 25.3333H19.8667L25.3333 19.8667V12.1333L19.8667 6.66667H12.1333L6.66667 12.1333V19.8667L12.1333 25.3333Z" fill="#1E2939"/>
</svg>
