<svg width="32" height="32" viewBox="0 0 32 32" fill="none" xmlns="http://www.w3.org/2000/svg">
<path d="M16.7999 16L11.5999 10.8C11.3555 10.5555 11.2333 10.2444 11.2333 9.86665C11.2333 9.48887 11.3555 9.17776 11.5999 8.93332C11.8444 8.68887 12.1555 8.56665 12.5333 8.56665C12.9111 8.56665 13.2222 8.68887 13.4666 8.93332L19.5999 15.0667C19.7333 15.2 19.8277 15.3444 19.8833 15.5C19.9388 15.6555 19.9666 15.8222 19.9666 16C19.9666 16.1778 19.9388 16.3444 19.8833 16.5C19.8277 16.6555 19.7333 16.8 19.5999 16.9333L13.4666 23.0667C13.2222 23.3111 12.9111 23.4333 12.5333 23.4333C12.1555 23.4333 11.8444 23.3111 11.5999 23.0667C11.3555 22.8222 11.2333 22.5111 11.2333 22.1333C11.2333 21.7555 11.3555 21.4444 11.5999 21.2L16.7999 16Z" fill="#1E2939"/>
</svg>
