<svg width="32" height="32" viewBox="0 0 32 32" fill="none" xmlns="http://www.w3.org/2000/svg">
<path d="M7.99992 26.6666C7.26659 26.6666 6.63881 26.4055 6.11659 25.8832C5.59436 25.361 5.33325 24.7332 5.33325 23.9999V21.3332C5.33325 20.9555 5.46103 20.6388 5.71659 20.3832C5.97214 20.1277 6.28881 19.9999 6.66659 19.9999C7.04436 19.9999 7.36103 20.1277 7.61659 20.3832C7.87214 20.6388 7.99992 20.9555 7.99992 21.3332V23.9999H23.9999V21.3332C23.9999 20.9555 24.1277 20.6388 24.3833 20.3832C24.6388 20.1277 24.9555 19.9999 25.3333 19.9999C25.711 19.9999 26.0277 20.1277 26.2833 20.3832C26.5388 20.6388 26.6666 20.9555 26.6666 21.3332V23.9999C26.6666 24.7332 26.4055 25.361 25.8833 25.8832C25.361 26.4055 24.7333 26.6666 23.9999 26.6666H7.99992ZM14.6666 10.4666L12.1666 12.9666C11.8999 13.2332 11.5833 13.361 11.2166 13.3499C10.8499 13.3388 10.5333 13.1999 10.2666 12.9332C10.0221 12.6666 9.89436 12.3555 9.88325 11.9999C9.87214 11.6443 9.99992 11.3332 10.2666 11.0666L15.0666 6.26657C15.1999 6.13324 15.3444 6.03879 15.4999 5.98324C15.6555 5.92768 15.8221 5.8999 15.9999 5.8999C16.1777 5.8999 16.3444 5.92768 16.4999 5.98324C16.6555 6.03879 16.7999 6.13324 16.9333 6.26657L21.7333 11.0666C21.9999 11.3332 22.1277 11.6443 22.1166 11.9999C22.1055 12.3555 21.9777 12.6666 21.7333 12.9332C21.4666 13.1999 21.1499 13.3388 20.7833 13.3499C20.4166 13.361 20.0999 13.2332 19.8333 12.9666L17.3333 10.4666V19.9999C17.3333 20.3777 17.2055 20.6943 16.9499 20.9499C16.6944 21.2055 16.3777 21.3332 15.9999 21.3332C15.6221 21.3332 15.3055 21.2055 15.0499 20.9499C14.7944 20.6943 14.6666 20.3777 14.6666 19.9999V10.4666Z" fill="#1E2939"/>
</svg>
