<svg width="32" height="32" viewBox="0 0 32 32" fill="none" xmlns="http://www.w3.org/2000/svg">
<path d="M17.1167 23.5167C17.439 23.1945 17.6001 22.8001 17.6001 22.3334C17.6001 21.8667 17.439 21.4723 17.1167 21.1501C16.7945 20.8279 16.4001 20.6667 15.9334 20.6667C15.4667 20.6667 15.0723 20.8279 14.7501 21.1501C14.4279 21.4723 14.2667 21.8667 14.2667 22.3334C14.2667 22.8001 14.4279 23.1945 14.7501 23.5167C15.0723 23.839 15.4667 24.0001 15.9334 24.0001C16.4001 24.0001 16.7945 23.839 17.1167 23.5167ZM16.0001 29.3334C14.1556 29.3334 12.4223 28.9834 10.8001 28.2834C9.17786 27.5834 7.76675 26.6334 6.56675 25.4334C5.36675 24.2334 4.41675 22.8223 3.71675 21.2001C3.01675 19.5779 2.66675 17.8445 2.66675 16.0001C2.66675 14.1556 3.01675 12.4223 3.71675 10.8001C4.41675 9.17786 5.36675 7.76675 6.56675 6.56675C7.76675 5.36675 9.17786 4.41675 10.8001 3.71675C12.4223 3.01675 14.1556 2.66675 16.0001 2.66675C17.8445 2.66675 19.5779 3.01675 21.2001 3.71675C22.8223 4.41675 24.2334 5.36675 25.4334 6.56675C26.6334 7.76675 27.5834 9.17786 28.2834 10.8001C28.9834 12.4223 29.3334 14.1556 29.3334 16.0001C29.3334 17.8445 28.9834 19.5779 28.2834 21.2001C27.5834 22.8223 26.6334 24.2334 25.4334 25.4334C24.2334 26.6334 22.8223 27.5834 21.2001 28.2834C19.5779 28.9834 17.8445 29.3334 16.0001 29.3334ZM16.0001 26.6667C18.9779 26.6667 21.5001 25.6334 23.5667 23.5667C25.6334 21.5001 26.6667 18.9779 26.6667 16.0001C26.6667 13.0223 25.6334 10.5001 23.5667 8.43341C21.5001 6.36675 18.9779 5.33341 16.0001 5.33341C13.0223 5.33341 10.5001 6.36675 8.43341 8.43341C6.36675 10.5001 5.33341 13.0223 5.33341 16.0001C5.33341 18.9779 6.36675 21.5001 8.43341 23.5667C10.5001 25.6334 13.0223 26.6667 16.0001 26.6667ZM16.1334 10.2667C16.689 10.2667 17.1723 10.4445 17.5834 10.8001C17.9945 11.1556 18.2001 11.6001 18.2001 12.1334C18.2001 12.6223 18.0501 13.0556 17.7501 13.4334C17.4501 13.8112 17.1112 14.1667 16.7334 14.5001C16.2223 14.9445 15.7723 15.4334 15.3834 15.9667C14.9945 16.5001 14.8001 17.1001 14.8001 17.7667C14.8001 18.0779 14.9167 18.339 15.1501 18.5501C15.3834 18.7612 15.6556 18.8667 15.9667 18.8667C16.3001 18.8667 16.5834 18.7556 16.8167 18.5334C17.0501 18.3112 17.2001 18.0334 17.2667 17.7001C17.3556 17.2334 17.5556 16.8167 17.8667 16.4501C18.1779 16.0834 18.5112 15.7334 18.8667 15.4001C19.3779 14.9112 19.8167 14.3779 20.1834 13.8001C20.5501 13.2223 20.7334 12.5779 20.7334 11.8667C20.7334 10.7334 20.2723 9.80564 19.3501 9.08341C18.4279 8.36119 17.3556 8.00008 16.1334 8.00008C15.289 8.00008 14.4834 8.17786 13.7167 8.53341C12.9501 8.88897 12.3667 9.43341 11.9667 10.1667C11.8112 10.4334 11.7612 10.7167 11.8167 11.0167C11.8723 11.3167 12.0223 11.5445 12.2667 11.7001C12.5779 11.8779 12.9001 11.9334 13.2334 11.8667C13.5667 11.8001 13.8445 11.6112 14.0667 11.3001C14.3112 10.9667 14.6167 10.7112 14.9834 10.5334C15.3501 10.3556 15.7334 10.2667 16.1334 10.2667Z" fill="#1E2939"/>
</svg>
