<svg width="32" height="32" viewBox="0 0 32 32" fill="none" xmlns="http://www.w3.org/2000/svg">
<path d="M16.9501 22.2834C17.2056 22.0279 17.3334 21.7112 17.3334 21.3334C17.3334 20.9556 17.2056 20.639 16.9501 20.3834C16.6945 20.1279 16.3779 20.0001 16.0001 20.0001C15.6223 20.0001 15.3056 20.1279 15.0501 20.3834C14.7945 20.639 14.6667 20.9556 14.6667 21.3334C14.6667 21.7112 14.7945 22.0279 15.0501 22.2834C15.3056 22.539 15.6223 22.6667 16.0001 22.6667C16.3779 22.6667 16.6945 22.539 16.9501 22.2834ZM16.9501 16.9501C17.2056 16.6945 17.3334 16.3779 17.3334 16.0001V10.6667C17.3334 10.289 17.2056 9.9723 16.9501 9.71675C16.6945 9.46119 16.3779 9.33341 16.0001 9.33341C15.6223 9.33341 15.3056 9.46119 15.0501 9.71675C14.7945 9.9723 14.6667 10.289 14.6667 10.6667V16.0001C14.6667 16.3779 14.7945 16.6945 15.0501 16.9501C15.3056 17.2056 15.6223 17.3334 16.0001 17.3334C16.3779 17.3334 16.6945 17.2056 16.9501 16.9501ZM16.0001 29.3334C14.1556 29.3334 12.4223 28.9834 10.8001 28.2834C9.17786 27.5834 7.76675 26.6334 6.56675 25.4334C5.36675 24.2334 4.41675 22.8223 3.71675 21.2001C3.01675 19.5779 2.66675 17.8445 2.66675 16.0001C2.66675 14.1556 3.01675 12.4223 3.71675 10.8001C4.41675 9.17786 5.36675 7.76675 6.56675 6.56675C7.76675 5.36675 9.17786 4.41675 10.8001 3.71675C12.4223 3.01675 14.1556 2.66675 16.0001 2.66675C17.8445 2.66675 19.5779 3.01675 21.2001 3.71675C22.8223 4.41675 24.2334 5.36675 25.4334 6.56675C26.6334 7.76675 27.5834 9.17786 28.2834 10.8001C28.9834 12.4223 29.3334 14.1556 29.3334 16.0001C29.3334 17.8445 28.9834 19.5779 28.2834 21.2001C27.5834 22.8223 26.6334 24.2334 25.4334 25.4334C24.2334 26.6334 22.8223 27.5834 21.2001 28.2834C19.5779 28.9834 17.8445 29.3334 16.0001 29.3334ZM16.0001 26.6667C18.9779 26.6667 21.5001 25.6334 23.5667 23.5667C25.6334 21.5001 26.6667 18.9779 26.6667 16.0001C26.6667 13.0223 25.6334 10.5001 23.5667 8.43341C21.5001 6.36675 18.9779 5.33341 16.0001 5.33341C13.0223 5.33341 10.5001 6.36675 8.43341 8.43341C6.36675 10.5001 5.33341 13.0223 5.33341 16.0001C5.33341 18.9779 6.36675 21.5001 8.43341 23.5667C10.5001 25.6334 13.0223 26.6667 16.0001 26.6667Z" fill="#1E2939"/>
</svg>
