<svg width="32" height="32" viewBox="0 0 32 32" fill="none" xmlns="http://www.w3.org/2000/svg">
<path d="M23.9999 21.0001C23.9999 23.3112 23.1888 25.2779 21.5666 26.9001C19.9444 28.5223 17.9777 29.3334 15.6666 29.3334C13.3555 29.3334 11.3888 28.5223 9.76659 26.9001C8.14436 25.2779 7.33325 23.3112 7.33325 21.0001V8.66675C7.33325 7.00008 7.91659 5.58341 9.08325 4.41675C10.2499 3.25008 11.6666 2.66675 13.3333 2.66675C14.9999 2.66675 16.4166 3.25008 17.5833 4.41675C18.7499 5.58341 19.3333 7.00008 19.3333 8.66675V20.3334C19.3333 21.3556 18.9777 22.2223 18.2666 22.9334C17.5555 23.6445 16.6888 24.0001 15.6666 24.0001C14.6444 24.0001 13.7777 23.6445 13.0666 22.9334C12.3555 22.2223 11.9999 21.3556 11.9999 20.3334V9.33341C11.9999 8.95564 12.1277 8.63897 12.3833 8.38341C12.6388 8.12786 12.9555 8.00008 13.3333 8.00008C13.711 8.00008 14.0277 8.12786 14.2833 8.38341C14.5388 8.63897 14.6666 8.95564 14.6666 9.33341V20.3334C14.6666 20.6223 14.761 20.8612 14.9499 21.0501C15.1388 21.239 15.3777 21.3334 15.6666 21.3334C15.9555 21.3334 16.1944 21.239 16.3833 21.0501C16.5721 20.8612 16.6666 20.6223 16.6666 20.3334V8.66675C16.6444 7.73341 16.3166 6.94453 15.6833 6.30008C15.0499 5.65564 14.2666 5.33341 13.3333 5.33341C12.3999 5.33341 11.611 5.65564 10.9666 6.30008C10.3221 6.94453 9.99992 7.73341 9.99992 8.66675V21.0001C9.9777 22.5779 10.5221 23.9167 11.6333 25.0167C12.7444 26.1167 14.0888 26.6667 15.6666 26.6667C17.2221 26.6667 18.5444 26.1167 19.6333 25.0167C20.7221 23.9167 21.2888 22.5779 21.3333 21.0001V9.33341C21.3333 8.95564 21.461 8.63897 21.7166 8.38341C21.9721 8.12786 22.2888 8.00008 22.6666 8.00008C23.0444 8.00008 23.361 8.12786 23.6166 8.38341C23.8721 8.63897 23.9999 8.95564 23.9999 9.33341V21.0001Z" fill="#1E2939"/>
</svg>
