<svg width="32" height="32" viewBox="0 0 32 32" fill="none" xmlns="http://www.w3.org/2000/svg">
<path d="M6.11659 25.8833C5.59436 25.361 5.33325 24.7333 5.33325 23.9999C5.33325 23.2666 5.59436 22.6388 6.11659 22.1166C6.63881 21.5944 7.26659 21.3333 7.99992 21.3333C8.73325 21.3333 9.36103 21.5944 9.88325 22.1166C10.4055 22.6388 10.6666 23.2666 10.6666 23.9999C10.6666 24.7333 10.4055 25.361 9.88325 25.8833C9.36103 26.4055 8.73325 26.6666 7.99992 26.6666C7.26659 26.6666 6.63881 26.4055 6.11659 25.8833ZM14.1166 25.8833C13.5944 25.361 13.3333 24.7333 13.3333 23.9999C13.3333 23.2666 13.5944 22.6388 14.1166 22.1166C14.6388 21.5944 15.2666 21.3333 15.9999 21.3333C16.7333 21.3333 17.361 21.5944 17.8833 22.1166C18.4055 22.6388 18.6666 23.2666 18.6666 23.9999C18.6666 24.7333 18.4055 25.361 17.8833 25.8833C17.361 26.4055 16.7333 26.6666 15.9999 26.6666C15.2666 26.6666 14.6388 26.4055 14.1166 25.8833ZM22.1166 25.8833C21.5944 25.361 21.3333 24.7333 21.3333 23.9999C21.3333 23.2666 21.5944 22.6388 22.1166 22.1166C22.6388 21.5944 23.2666 21.3333 23.9999 21.3333C24.7333 21.3333 25.361 21.5944 25.8833 22.1166C26.4055 22.6388 26.6666 23.2666 26.6666 23.9999C26.6666 24.7333 26.4055 25.361 25.8833 25.8833C25.361 26.4055 24.7333 26.6666 23.9999 26.6666C23.2666 26.6666 22.6388 26.4055 22.1166 25.8833ZM6.11659 17.8833C5.59436 17.361 5.33325 16.7333 5.33325 15.9999C5.33325 15.2666 5.59436 14.6388 6.11659 14.1166C6.63881 13.5944 7.26659 13.3333 7.99992 13.3333C8.73325 13.3333 9.36103 13.5944 9.88325 14.1166C10.4055 14.6388 10.6666 15.2666 10.6666 15.9999C10.6666 16.7333 10.4055 17.361 9.88325 17.8833C9.36103 18.4055 8.73325 18.6666 7.99992 18.6666C7.26659 18.6666 6.63881 18.4055 6.11659 17.8833ZM14.1166 17.8833C13.5944 17.361 13.3333 16.7333 13.3333 15.9999C13.3333 15.2666 13.5944 14.6388 14.1166 14.1166C14.6388 13.5944 15.2666 13.3333 15.9999 13.3333C16.7333 13.3333 17.361 13.5944 17.8833 14.1166C18.4055 14.6388 18.6666 15.2666 18.6666 15.9999C18.6666 16.7333 18.4055 17.361 17.8833 17.8833C17.361 18.4055 16.7333 18.6666 15.9999 18.6666C15.2666 18.6666 14.6388 18.4055 14.1166 17.8833ZM22.1166 17.8833C21.5944 17.361 21.3333 16.7333 21.3333 15.9999C21.3333 15.2666 21.5944 14.6388 22.1166 14.1166C22.6388 13.5944 23.2666 13.3333 23.9999 13.3333C24.7333 13.3333 25.361 13.5944 25.8833 14.1166C26.4055 14.6388 26.6666 15.2666 26.6666 15.9999C26.6666 16.7333 26.4055 17.361 25.8833 17.8833C25.361 18.4055 24.7333 18.6666 23.9999 18.6666C23.2666 18.6666 22.6388 18.4055 22.1166 17.8833ZM6.11659 9.88325C5.59436 9.36103 5.33325 8.73325 5.33325 7.99992C5.33325 7.26659 5.59436 6.63881 6.11659 6.11659C6.63881 5.59436 7.26659 5.33325 7.99992 5.33325C8.73325 5.33325 9.36103 5.59436 9.88325 6.11659C10.4055 6.63881 10.6666 7.26659 10.6666 7.99992C10.6666 8.73325 10.4055 9.36103 9.88325 9.88325C9.36103 10.4055 8.73325 10.6666 7.99992 10.6666C7.26659 10.6666 6.63881 10.4055 6.11659 9.88325ZM14.1166 9.88325C13.5944 9.36103 13.3333 8.73325 13.3333 7.99992C13.3333 7.26659 13.5944 6.63881 14.1166 6.11659C14.6388 5.59436 15.2666 5.33325 15.9999 5.33325C16.7333 5.33325 17.361 5.59436 17.8833 6.11659C18.4055 6.63881 18.6666 7.26659 18.6666 7.99992C18.6666 8.73325 18.4055 9.36103 17.8833 9.88325C17.361 10.4055 16.7333 10.6666 15.9999 10.6666C15.2666 10.6666 14.6388 10.4055 14.1166 9.88325ZM22.1166 9.88325C21.5944 9.36103 21.3333 8.73325 21.3333 7.99992C21.3333 7.26659 21.5944 6.63881 22.1166 6.11659C22.6388 5.59436 23.2666 5.33325 23.9999 5.33325C24.7333 5.33325 25.361 5.59436 25.8833 6.11659C26.4055 6.63881 26.6666 7.26659 26.6666 7.99992C26.6666 8.73325 26.4055 9.36103 25.8833 9.88325C25.361 10.4055 24.7333 10.6666 23.9999 10.6666C23.2666 10.6666 22.6388 10.4055 22.1166 9.88325Z" fill="#1E2939"/>
</svg>
