<svg width="32" height="32" viewBox="0 0 32 32" fill="none" xmlns="http://www.w3.org/2000/svg">
<path d="M8.00008 24.0001L4.93341 27.0667C4.51119 27.489 4.02786 27.5834 3.48341 27.3501C2.93897 27.1167 2.66675 26.7001 2.66675 26.1001V5.33341C2.66675 4.60008 2.92786 3.9723 3.45008 3.45008C3.9723 2.92786 4.60008 2.66675 5.33341 2.66675H26.6667C27.4001 2.66675 28.0279 2.92786 28.5501 3.45008C29.0723 3.9723 29.3334 4.60008 29.3334 5.33341V21.3334C29.3334 22.0667 29.0723 22.6945 28.5501 23.2167C28.0279 23.739 27.4001 24.0001 26.6667 24.0001H8.00008ZM6.86675 21.3334H26.6667V5.33341H5.33341V22.8334L6.86675 21.3334Z" fill="#1E2939"/>
</svg>
