<svg width="32" height="32" viewBox="0 0 32 32" fill="none" xmlns="http://www.w3.org/2000/svg">
<path d="M14.6 14.9L13.6333 13.9333C13.3666 13.6889 13.0555 13.5667 12.7 13.5667C12.3444 13.5667 12.0333 13.7 11.7666 13.9667C11.5 14.2333 11.3666 14.5444 11.3666 14.9C11.3666 15.2556 11.5 15.5667 11.7666 15.8333L13.6333 17.7333C13.9 18 14.2166 18.1333 14.5833 18.1333C14.95 18.1333 15.2666 18 15.5333 17.7333L20.2333 13C20.5 12.7333 20.6333 12.4222 20.6333 12.0667C20.6333 11.7111 20.5 11.4 20.2333 11.1333C19.9666 10.8667 19.6555 10.7333 19.3 10.7333C18.9444 10.7333 18.6333 10.8667 18.3666 11.1333L14.6 14.9ZM16 24L10.4 26.4C9.51107 26.7778 8.66663 26.7056 7.86663 26.1833C7.06663 25.6611 6.66663 24.9222 6.66663 23.9667V6.66667C6.66663 5.93333 6.92774 5.30556 7.44996 4.78333C7.97218 4.26111 8.59996 4 9.33329 4H22.6666C23.4 4 24.0277 4.26111 24.55 4.78333C25.0722 5.30556 25.3333 5.93333 25.3333 6.66667V23.9667C25.3333 24.9222 24.9333 25.6611 24.1333 26.1833C23.3333 26.7056 22.4888 26.7778 21.6 26.4L16 24ZM16 21.0667L22.6666 23.9333V6.66667H9.33329V23.9333L16 21.0667ZM16 6.66667H9.33329H22.6666H16Z" fill="#1E2939"/>
</svg>
