<svg width="32" height="32" viewBox="0 0 32 32" fill="none" xmlns="http://www.w3.org/2000/svg">
<path d="M9.33325 28C8.59992 28 7.97214 27.7389 7.44992 27.2167C6.9277 26.6944 6.66659 26.0667 6.66659 25.3333V8C6.28881 8 5.97214 7.87222 5.71659 7.61667C5.46103 7.36111 5.33325 7.04444 5.33325 6.66667C5.33325 6.28889 5.46103 5.97222 5.71659 5.71667C5.97214 5.46111 6.28881 5.33333 6.66659 5.33333H11.9999C11.9999 4.95556 12.1277 4.63889 12.3833 4.38333C12.6388 4.12778 12.9555 4 13.3333 4H18.6666C19.0444 4 19.361 4.12778 19.6166 4.38333C19.8721 4.63889 19.9999 4.95556 19.9999 5.33333H25.3333C25.711 5.33333 26.0277 5.46111 26.2833 5.71667C26.5388 5.97222 26.6666 6.28889 26.6666 6.66667C26.6666 7.04444 26.5388 7.36111 26.2833 7.61667C26.0277 7.87222 25.711 8 25.3333 8V25.3333C25.3333 26.0667 25.0721 26.6944 24.5499 27.2167C24.0277 27.7389 23.3999 28 22.6666 28H9.33325ZM22.6666 8H9.33325V25.3333H22.6666V8ZM14.2833 22.2833C14.5388 22.0278 14.6666 21.7111 14.6666 21.3333V12C14.6666 11.6222 14.5388 11.3056 14.2833 11.05C14.0277 10.7944 13.711 10.6667 13.3333 10.6667C12.9555 10.6667 12.6388 10.7944 12.3833 11.05C12.1277 11.3056 11.9999 11.6222 11.9999 12V21.3333C11.9999 21.7111 12.1277 22.0278 12.3833 22.2833C12.6388 22.5389 12.9555 22.6667 13.3333 22.6667C13.711 22.6667 14.0277 22.5389 14.2833 22.2833ZM19.6166 22.2833C19.8721 22.0278 19.9999 21.7111 19.9999 21.3333V12C19.9999 11.6222 19.8721 11.3056 19.6166 11.05C19.361 10.7944 19.0444 10.6667 18.6666 10.6667C18.2888 10.6667 17.9721 10.7944 17.7166 11.05C17.461 11.3056 17.3333 11.6222 17.3333 12V21.3333C17.3333 21.7111 17.461 22.0278 17.7166 22.2833C17.9721 22.5389 18.2888 22.6667 18.6666 22.6667C19.0444 22.6667 19.361 22.5389 19.6166 22.2833Z" fill="#1E2939"/>
</svg>
