<svg width="32" height="32" viewBox="0 0 32 32" fill="none" xmlns="http://www.w3.org/2000/svg">
<path d="M11.9999 24.0001H19.9999C20.3777 24.0001 20.6944 23.8723 20.9499 23.6167C21.2055 23.3612 21.3333 23.0445 21.3333 22.6667C21.3333 22.289 21.2055 21.9723 20.9499 21.7167C20.6944 21.4612 20.3777 21.3334 19.9999 21.3334H11.9999C11.6221 21.3334 11.3055 21.4612 11.0499 21.7167C10.7944 21.9723 10.6666 22.289 10.6666 22.6667C10.6666 23.0445 10.7944 23.3612 11.0499 23.6167C11.3055 23.8723 11.6221 24.0001 11.9999 24.0001ZM11.9999 18.6667H19.9999C20.3777 18.6667 20.6944 18.539 20.9499 18.2834C21.2055 18.0279 21.3333 17.7112 21.3333 17.3334C21.3333 16.9556 21.2055 16.639 20.9499 16.3834C20.6944 16.1279 20.3777 16.0001 19.9999 16.0001H11.9999C11.6221 16.0001 11.3055 16.1279 11.0499 16.3834C10.7944 16.639 10.6666 16.9556 10.6666 17.3334C10.6666 17.7112 10.7944 18.0279 11.0499 18.2834C11.3055 18.539 11.6221 18.6667 11.9999 18.6667ZM7.99992 29.3334C7.26659 29.3334 6.63881 29.0723 6.11659 28.5501C5.59436 28.0279 5.33325 27.4001 5.33325 26.6667V5.33341C5.33325 4.60008 5.59436 3.9723 6.11659 3.45008C6.63881 2.92786 7.26659 2.66675 7.99992 2.66675H17.5666C17.9221 2.66675 18.261 2.73341 18.5833 2.86675C18.9055 3.00008 19.1888 3.18897 19.4333 3.43341L25.8999 9.90008C26.1444 10.1445 26.3333 10.4279 26.4666 10.7501C26.5999 11.0723 26.6666 11.4112 26.6666 11.7667V26.6667C26.6666 27.4001 26.4055 28.0279 25.8833 28.5501C25.361 29.0723 24.7333 29.3334 23.9999 29.3334H7.99992ZM17.3333 10.6667V5.33341H7.99992V26.6667H23.9999V12.0001H18.6666C18.2888 12.0001 17.9721 11.8723 17.7166 11.6167C17.461 11.3612 17.3333 11.0445 17.3333 10.6667Z" fill="#1E2939"/>
</svg>
