<svg width="32" height="32" viewBox="0 0 32 32" fill="none" xmlns="http://www.w3.org/2000/svg">
<path d="M6.66667 25.3333H8.56667L21.6 12.3L19.7 10.4L6.66667 23.4333V25.3333ZM5.33333 28C4.95556 28 4.63889 27.8722 4.38333 27.6167C4.12778 27.3611 4 27.0444 4 26.6667V23.4333C4 23.0778 4.06667 22.7389 4.2 22.4167C4.33333 22.0944 4.52222 21.8111 4.76667 21.5667L21.6 4.76667C21.8667 4.52222 22.1611 4.33333 22.4833 4.2C22.8056 4.06667 23.1444 4 23.5 4C23.8556 4 24.2 4.06667 24.5333 4.2C24.8667 4.33333 25.1556 4.53333 25.4 4.8L27.2333 6.66667C27.5 6.91111 27.6944 7.2 27.8167 7.53333C27.9389 7.86667 28 8.2 28 8.53333C28 8.88889 27.9389 9.22778 27.8167 9.55C27.6944 9.87222 27.5 10.1667 27.2333 10.4333L10.4333 27.2333C10.1889 27.4778 9.90556 27.6667 9.58333 27.8C9.26111 27.9333 8.92222 28 8.56667 28H5.33333ZM20.6333 11.3667L19.7 10.4L21.6 12.3L20.6333 11.3667Z" fill="#1E2939"/>
</svg>
