<svg width="32" height="32" viewBox="0 0 32 32" fill="none" xmlns="http://www.w3.org/2000/svg">
<path d="M13.3333 21.3334H18.6666C19.0444 21.3334 19.361 21.2056 19.6166 20.95C19.8721 20.6945 19.9999 20.3778 19.9999 20V16C19.9999 15.6223 19.8721 15.3056 19.6166 15.05C19.361 14.7945 19.0444 14.6667 18.6666 14.6667V13.3334C18.6666 12.6 18.4055 11.9723 17.8833 11.45C17.361 10.9278 16.7333 10.6667 15.9999 10.6667C15.2666 10.6667 14.6388 10.9278 14.1166 11.45C13.5944 11.9723 13.3333 12.6 13.3333 13.3334V14.6667C12.9555 14.6667 12.6388 14.7945 12.3833 15.05C12.1277 15.3056 11.9999 15.6223 11.9999 16V20C11.9999 20.3778 12.1277 20.6945 12.3833 20.95C12.6388 21.2056 12.9555 21.3334 13.3333 21.3334ZM14.6666 14.6667V13.3334C14.6666 12.9556 14.7944 12.6389 15.0499 12.3834C15.3055 12.1278 15.6221 12 15.9999 12C16.3777 12 16.6944 12.1278 16.9499 12.3834C17.2055 12.6389 17.3333 12.9556 17.3333 13.3334V14.6667H14.6666ZM15.5666 29.1667C15.4333 29.1445 15.2999 29.1111 15.1666 29.0667C12.1666 28.0667 9.7777 26.2167 7.99992 23.5167C6.22214 20.8167 5.33325 17.9111 5.33325 14.8V8.50003C5.33325 7.94448 5.49436 7.44448 5.81659 7.00003C6.13881 6.55559 6.55547 6.23337 7.06659 6.03337L15.0666 3.03337C15.3777 2.92225 15.6888 2.8667 15.9999 2.8667C16.311 2.8667 16.6221 2.92225 16.9333 3.03337L24.9333 6.03337C25.4444 6.23337 25.861 6.55559 26.1833 7.00003C26.5055 7.44448 26.6666 7.94448 26.6666 8.50003V14.8C26.6666 17.9111 25.7777 20.8167 23.9999 23.5167C22.2221 26.2167 19.8333 28.0667 16.8333 29.0667C16.6999 29.1111 16.5666 29.1445 16.4333 29.1667C16.2999 29.1889 16.1555 29.2 15.9999 29.2C15.8444 29.2 15.6999 29.1889 15.5666 29.1667ZM15.9999 26.5334C18.311 25.8 20.2221 24.3334 21.7333 22.1334C23.2444 19.9334 23.9999 17.4889 23.9999 14.8V8.50003L15.9999 5.50003L7.99992 8.50003V14.8C7.99992 17.4889 8.75547 19.9334 10.2666 22.1334C11.7777 24.3334 13.6888 25.8 15.9999 26.5334Z" fill="#1E2939"/>
</svg>
