<svg width="32" height="32" viewBox="0 0 32 32" fill="none" xmlns="http://www.w3.org/2000/svg">
<path d="M15.5666 29.1667C15.4333 29.1445 15.2999 29.1111 15.1666 29.0667C12.1666 28.0667 9.7777 26.2167 7.99992 23.5167C6.22214 20.8167 5.33325 17.9111 5.33325 14.8V8.50003C5.33325 7.94448 5.49436 7.44448 5.81659 7.00003C6.13881 6.55559 6.55547 6.23337 7.06659 6.03337L15.0666 3.03337C15.3777 2.92225 15.6888 2.8667 15.9999 2.8667C16.311 2.8667 16.6221 2.92225 16.9333 3.03337L24.9333 6.03337C25.4444 6.23337 25.861 6.55559 26.1833 7.00003C26.5055 7.44448 26.6666 7.94448 26.6666 8.50003V14.8C26.6666 17.9111 25.7777 20.8167 23.9999 23.5167C22.2221 26.2167 19.8333 28.0667 16.8333 29.0667C16.6999 29.1111 16.5666 29.1445 16.4333 29.1667C16.2999 29.1889 16.1555 29.2 15.9999 29.2C15.8444 29.2 15.6999 29.1889 15.5666 29.1667ZM15.9999 26.5334C18.311 25.8 20.2221 24.3334 21.7333 22.1334C23.2444 19.9334 23.9999 17.4889 23.9999 14.8V8.50003L15.9999 5.50003L7.99992 8.50003V14.8C7.99992 17.4889 8.75547 19.9334 10.2666 22.1334C11.7777 24.3334 13.6888 25.8 15.9999 26.5334Z" fill="#1E2939"/>
</svg>
