<svg width="32" height="32" viewBox="0 0 32 32" fill="none" xmlns="http://www.w3.org/2000/svg">
<path d="M1.33325 22.9333C1.33325 22.1777 1.5277 21.4833 1.91659 20.8499C2.30547 20.2166 2.82214 19.7333 3.46659 19.3999C4.84436 18.711 6.24436 18.1944 7.66659 17.8499C9.08881 17.5055 10.5333 17.3333 11.9999 17.3333C13.4666 17.3333 14.911 17.5055 16.3333 17.8499C17.7555 18.1944 19.1555 18.711 20.5333 19.3999C21.1777 19.7333 21.6944 20.2166 22.0833 20.8499C22.4721 21.4833 22.6666 22.1777 22.6666 22.9333V23.9999C22.6666 24.7333 22.4055 25.361 21.8833 25.8833C21.361 26.4055 20.7333 26.6666 19.9999 26.6666H3.99992C3.26659 26.6666 2.63881 26.4055 2.11659 25.8833C1.59436 25.361 1.33325 24.7333 1.33325 23.9999V22.9333ZM27.9999 26.6666H24.5999C24.8444 26.2666 25.0277 25.8388 25.1499 25.3833C25.2721 24.9277 25.3333 24.4666 25.3333 23.9999V22.6666C25.3333 21.6888 25.061 20.7499 24.5166 19.8499C23.9721 18.9499 23.1999 18.1777 22.1999 17.5333C23.3333 17.6666 24.3999 17.8944 25.3999 18.2166C26.3999 18.5388 27.3333 18.9333 28.1999 19.3999C28.9999 19.8444 29.611 20.3388 30.0333 20.8833C30.4555 21.4277 30.6666 22.0221 30.6666 22.6666V23.9999C30.6666 24.7333 30.4055 25.361 29.8833 25.8833C29.361 26.4055 28.7333 26.6666 27.9999 26.6666ZM8.23325 14.4333C7.18881 13.3888 6.66659 12.1333 6.66659 10.6666C6.66659 9.19992 7.18881 7.94436 8.23325 6.89992C9.2777 5.85547 10.5333 5.33325 11.9999 5.33325C13.4666 5.33325 14.7221 5.85547 15.7666 6.89992C16.811 7.94436 17.3333 9.19992 17.3333 10.6666C17.3333 12.1333 16.811 13.3888 15.7666 14.4333C14.7221 15.4777 13.4666 15.9999 11.9999 15.9999C10.5333 15.9999 9.2777 15.4777 8.23325 14.4333ZM23.7666 14.4333C22.7221 15.4777 21.4666 15.9999 19.9999 15.9999C19.7555 15.9999 19.4444 15.9721 19.0666 15.9166C18.6888 15.861 18.3777 15.7999 18.1333 15.7333C18.7333 15.0221 19.1944 14.2333 19.5166 13.3666C19.8388 12.4999 19.9999 11.5999 19.9999 10.6666C19.9999 9.73325 19.8388 8.83325 19.5166 7.96659C19.1944 7.09992 18.7333 6.31103 18.1333 5.59992C18.4444 5.48881 18.7555 5.41659 19.0666 5.38325C19.3777 5.34992 19.6888 5.33325 19.9999 5.33325C21.4666 5.33325 22.7221 5.85547 23.7666 6.89992C24.811 7.94436 25.3333 9.19992 25.3333 10.6666C25.3333 12.1333 24.811 13.3888 23.7666 14.4333ZM3.99992 23.9999H19.9999V22.9333C19.9999 22.6888 19.9388 22.4666 19.8166 22.2666C19.6944 22.0666 19.5333 21.911 19.3333 21.7999C18.1333 21.1999 16.9221 20.7499 15.6999 20.4499C14.4777 20.1499 13.2444 19.9999 11.9999 19.9999C10.7555 19.9999 9.52214 20.1499 8.29992 20.4499C7.0777 20.7499 5.86659 21.1999 4.66659 21.7999C4.46659 21.911 4.30547 22.0666 4.18325 22.2666C4.06103 22.4666 3.99992 22.6888 3.99992 22.9333V23.9999ZM13.8833 12.5499C14.4055 12.0277 14.6666 11.3999 14.6666 10.6666C14.6666 9.93325 14.4055 9.30547 13.8833 8.78325C13.361 8.26103 12.7333 7.99992 11.9999 7.99992C11.2666 7.99992 10.6388 8.26103 10.1166 8.78325C9.59436 9.30547 9.33325 9.93325 9.33325 10.6666C9.33325 11.3999 9.59436 12.0277 10.1166 12.5499C10.6388 13.0721 11.2666 13.3333 11.9999 13.3333C12.7333 13.3333 13.361 13.0721 13.8833 12.5499Z" fill="#1E2939"/>
</svg>
