<svg width="32" height="32" viewBox="0 0 32 32" fill="none" xmlns="http://www.w3.org/2000/svg">
<path d="M8.00004 25.3334H12V18.6667C12 18.289 12.1278 17.9723 12.3834 17.7167C12.6389 17.4612 12.9556 17.3334 13.3334 17.3334H18.6667C19.0445 17.3334 19.3612 17.4612 19.6167 17.7167C19.8723 17.9723 20 18.289 20 18.6667V25.3334H24V13.3334L16 7.33341L8.00004 13.3334V25.3334ZM5.33337 25.3334V13.3334C5.33337 12.9112 5.42782 12.5112 5.61671 12.1334C5.8056 11.7556 6.06671 11.4445 6.40004 11.2001L14.4 5.20008C14.8667 4.84453 15.4 4.66675 16 4.66675C16.6 4.66675 17.1334 4.84453 17.6 5.20008L25.6 11.2001C25.9334 11.4445 26.1945 11.7556 26.3834 12.1334C26.5723 12.5112 26.6667 12.9112 26.6667 13.3334V25.3334C26.6667 26.0667 26.4056 26.6945 25.8834 27.2167C25.3612 27.739 24.7334 28.0001 24 28.0001H18.6667C18.2889 28.0001 17.9723 27.8723 17.7167 27.6167C17.4612 27.3612 17.3334 27.0445 17.3334 26.6667V20.0001H14.6667V26.6667C14.6667 27.0445 14.5389 27.3612 14.2834 27.6167C14.0278 27.8723 13.7112 28.0001 13.3334 28.0001H8.00004C7.26671 28.0001 6.63893 27.739 6.11671 27.2167C5.59449 26.6945 5.33337 26.0667 5.33337 25.3334Z" fill="#1E2939"/>
</svg>
