<svg width="32" height="32" viewBox="0 0 32 32" fill="none" xmlns="http://www.w3.org/2000/svg">
<g clip-path="url(#clip0_182_579)">
<path d="M32 0H0V32H32V0Z" fill="#0084B1"/>
<path d="M7.53112 4.86011C8.99675 4.8613 10.2055 6.07184 10.2024 7.54478C10.1989 9.08709 8.91895 10.2495 7.51307 10.216C6.08711 10.2449 4.83395 9.05388 4.83423 7.5346C4.83423 6.0611 6.04772 4.85898 7.53112 4.86011Z" fill="white"/>
<path d="M9.08828 27.1368H5.94811C5.54058 27.1368 5.21021 26.8065 5.21021 26.3989V13.0028C5.21021 12.5953 5.54058 12.2649 5.94811 12.2649H9.08828C9.49582 12.2649 9.82619 12.5953 9.82619 13.0028V26.399C9.82612 26.8065 9.49582 27.1368 9.08828 27.1368Z" fill="white"/>
<path d="M27.1657 16.9701C27.1657 14.1617 24.8891 11.885 22.0806 11.885H21.2752C19.7387 11.885 18.3813 12.6516 17.5648 13.8234C17.4758 13.9511 17.3933 14.0838 17.3176 14.2207C17.2914 14.2168 17.2759 14.2147 17.2756 14.2154V12.5711C17.2756 12.4019 17.1384 12.2647 16.9692 12.2647H13.0515C12.8823 12.2647 12.7451 12.4019 12.7451 12.5711V26.8305C12.7451 26.9997 12.8822 27.1368 13.0513 27.1369L17.0545 27.1379C17.2237 27.1379 17.3609 27.0007 17.3609 26.8315V18.5935C17.3609 17.1695 18.4967 15.9871 19.9206 15.971C20.6475 15.9628 21.3064 16.254 21.7814 16.7293C22.2501 17.1977 22.5399 17.8454 22.5399 18.5605V26.8326C22.5399 27.0017 22.677 27.1389 22.8461 27.1389L26.8591 27.1399C27.0284 27.14 27.1656 27.0028 27.1656 26.8335V16.9701H27.1657Z" fill="white"/>
</g>
<defs>
<clipPath id="clip0_182_579">
<rect width="32" height="32" fill="white"/>
</clipPath>
</defs>
</svg>
