<svg width="32" height="32" viewBox="0 0 32 32" fill="none" xmlns="http://www.w3.org/2000/svg">
<path d="M10.6667 11.9999C10.2889 11.9999 9.97222 11.8721 9.71667 11.6166C9.46111 11.361 9.33333 11.0444 9.33333 10.6666C9.33333 10.2888 9.46111 9.97214 9.71667 9.71659C9.97222 9.46103 10.2889 9.33325 10.6667 9.33325H26.6667C27.0444 9.33325 27.3611 9.46103 27.6167 9.71659C27.8722 9.97214 28 10.2888 28 10.6666C28 11.0444 27.8722 11.361 27.6167 11.6166C27.3611 11.8721 27.0444 11.9999 26.6667 11.9999H10.6667ZM10.6667 17.3333C10.2889 17.3333 9.97222 17.2055 9.71667 16.9499C9.46111 16.6944 9.33333 16.3777 9.33333 15.9999C9.33333 15.6221 9.46111 15.3055 9.71667 15.0499C9.97222 14.7944 10.2889 14.6666 10.6667 14.6666H26.6667C27.0444 14.6666 27.3611 14.7944 27.6167 15.0499C27.8722 15.3055 28 15.6221 28 15.9999C28 16.3777 27.8722 16.6944 27.6167 16.9499C27.3611 17.2055 27.0444 17.3333 26.6667 17.3333H10.6667ZM10.6667 22.6666C10.2889 22.6666 9.97222 22.5388 9.71667 22.2833C9.46111 22.0277 9.33333 21.711 9.33333 21.3333C9.33333 20.9555 9.46111 20.6388 9.71667 20.3833C9.97222 20.1277 10.2889 19.9999 10.6667 19.9999H26.6667C27.0444 19.9999 27.3611 20.1277 27.6167 20.3833C27.8722 20.6388 28 20.9555 28 21.3333C28 21.711 27.8722 22.0277 27.6167 22.2833C27.3611 22.5388 27.0444 22.6666 26.6667 22.6666H10.6667ZM5.33333 11.9999C4.95556 11.9999 4.63889 11.8721 4.38333 11.6166C4.12778 11.361 4 11.0444 4 10.6666C4 10.2888 4.12778 9.97214 4.38333 9.71659C4.63889 9.46103 4.95556 9.33325 5.33333 9.33325C5.71111 9.33325 6.02778 9.46103 6.28333 9.71659C6.53889 9.97214 6.66667 10.2888 6.66667 10.6666C6.66667 11.0444 6.53889 11.361 6.28333 11.6166C6.02778 11.8721 5.71111 11.9999 5.33333 11.9999ZM5.33333 17.3333C4.95556 17.3333 4.63889 17.2055 4.38333 16.9499C4.12778 16.6944 4 16.3777 4 15.9999C4 15.6221 4.12778 15.3055 4.38333 15.0499C4.63889 14.7944 4.95556 14.6666 5.33333 14.6666C5.71111 14.6666 6.02778 14.7944 6.28333 15.0499C6.53889 15.3055 6.66667 15.6221 6.66667 15.9999C6.66667 16.3777 6.53889 16.6944 6.28333 16.9499C6.02778 17.2055 5.71111 17.3333 5.33333 17.3333ZM5.33333 22.6666C4.95556 22.6666 4.63889 22.5388 4.38333 22.2833C4.12778 22.0277 4 21.711 4 21.3333C4 20.9555 4.12778 20.6388 4.38333 20.3833C4.63889 20.1277 4.95556 19.9999 5.33333 19.9999C5.71111 19.9999 6.02778 20.1277 6.28333 20.3833C6.53889 20.6388 6.66667 20.9555 6.66667 21.3333C6.66667 21.711 6.53889 22.0277 6.28333 22.2833C6.02778 22.5388 5.71111 22.6666 5.33333 22.6666Z" fill="#1E2939"/>
</svg>
