<svg width="32" height="32" viewBox="0 0 32 32" fill="none" xmlns="http://www.w3.org/2000/svg">
<path d="M15.9999 29.3334C15.2666 29.3334 14.6388 29.0723 14.1166 28.5501C13.5944 28.0279 13.3333 27.4001 13.3333 26.6667H18.6666C18.6666 27.4001 18.4055 28.0279 17.8833 28.5501C17.361 29.0723 16.7333 29.3334 15.9999 29.3334ZM6.66659 25.3334C6.28881 25.3334 5.97214 25.2056 5.71659 24.9501C5.46103 24.6945 5.33325 24.3779 5.33325 24.0001C5.33325 23.6223 5.46103 23.3056 5.71659 23.0501C5.97214 22.7945 6.28881 22.6667 6.66659 22.6667H7.99992V13.3334C7.99992 11.489 8.55547 9.85008 9.66658 8.41675C10.7777 6.98341 12.2221 6.04453 13.9999 5.60008V4.66675C13.9999 4.11119 14.1944 3.63897 14.5833 3.25008C14.9721 2.86119 15.4444 2.66675 15.9999 2.66675C16.5555 2.66675 17.0277 2.86119 17.4166 3.25008C17.8055 3.63897 17.9999 4.11119 17.9999 4.66675V5.10008C17.7555 5.58897 17.5777 6.08897 17.4666 6.60008C17.3555 7.11119 17.311 7.63341 17.3333 8.16675C17.111 8.1223 16.8944 8.08341 16.6833 8.05008C16.4721 8.01675 16.2444 8.00008 15.9999 8.00008C14.5333 8.00008 13.2777 8.5223 12.2333 9.56675C11.1888 10.6112 10.6666 11.8667 10.6666 13.3334V22.6667H21.3333V14.1001C21.7333 14.2779 22.161 14.4167 22.6166 14.5167C23.0721 14.6167 23.5333 14.6667 23.9999 14.6667V22.6667H25.3333C25.711 22.6667 26.0277 22.7945 26.2833 23.0501C26.5388 23.3056 26.6666 23.6223 26.6666 24.0001C26.6666 24.3779 26.5388 24.6945 26.2833 24.9501C26.0277 25.2056 25.711 25.3334 25.3333 25.3334H6.66659ZM21.1666 10.8334C20.3888 10.0556 19.9999 9.11119 19.9999 8.00008C19.9999 6.88897 20.3888 5.94453 21.1666 5.16675C21.9444 4.38897 22.8888 4.00008 23.9999 4.00008C25.111 4.00008 26.0555 4.38897 26.8333 5.16675C27.611 5.94453 27.9999 6.88897 27.9999 8.00008C27.9999 9.11119 27.611 10.0556 26.8333 10.8334C26.0555 11.6112 25.111 12.0001 23.9999 12.0001C22.8888 12.0001 21.9444 11.6112 21.1666 10.8334Z" fill="#1E2939"/>
</svg>
