<svg width="32" height="32" viewBox="0 0 32 32" fill="none" xmlns="http://www.w3.org/2000/svg">
<path d="M17.3334 15.4667V10.6667C17.3334 10.289 17.2056 9.9723 16.9501 9.71675C16.6945 9.46119 16.3779 9.33341 16.0001 9.33341C15.6223 9.33341 15.3056 9.46119 15.0501 9.71675C14.7945 9.9723 14.6667 10.289 14.6667 10.6667V15.9667C14.6667 16.1445 14.7001 16.3167 14.7667 16.4834C14.8334 16.6501 14.9334 16.8001 15.0667 16.9334L19.4667 21.3334C19.7112 21.5779 20.0223 21.7001 20.4001 21.7001C20.7779 21.7001 21.089 21.5779 21.3334 21.3334C21.5779 21.089 21.7001 20.7779 21.7001 20.4001C21.7001 20.0223 21.5779 19.7112 21.3334 19.4667L17.3334 15.4667ZM16.0001 29.3334C14.1556 29.3334 12.4223 28.9834 10.8001 28.2834C9.17786 27.5834 7.76675 26.6334 6.56675 25.4334C5.36675 24.2334 4.41675 22.8223 3.71675 21.2001C3.01675 19.5779 2.66675 17.8445 2.66675 16.0001C2.66675 14.1556 3.01675 12.4223 3.71675 10.8001C4.41675 9.17786 5.36675 7.76675 6.56675 6.56675C7.76675 5.36675 9.17786 4.41675 10.8001 3.71675C12.4223 3.01675 14.1556 2.66675 16.0001 2.66675C17.8445 2.66675 19.5779 3.01675 21.2001 3.71675C22.8223 4.41675 24.2334 5.36675 25.4334 6.56675C26.6334 7.76675 27.5834 9.17786 28.2834 10.8001C28.9834 12.4223 29.3334 14.1556 29.3334 16.0001C29.3334 17.8445 28.9834 19.5779 28.2834 21.2001C27.5834 22.8223 26.6334 24.2334 25.4334 25.4334C24.2334 26.6334 22.8223 27.5834 21.2001 28.2834C19.5779 28.9834 17.8445 29.3334 16.0001 29.3334ZM16.0001 26.6667C18.9556 26.6667 21.4723 25.6279 23.5501 23.5501C25.6279 21.4723 26.6667 18.9556 26.6667 16.0001C26.6667 13.0445 25.6279 10.5279 23.5501 8.45008C21.4723 6.3723 18.9556 5.33341 16.0001 5.33341C13.0445 5.33341 10.5279 6.3723 8.45008 8.45008C6.3723 10.5279 5.33341 13.0445 5.33341 16.0001C5.33341 18.9556 6.3723 21.4723 8.45008 23.5501C10.5279 25.6279 13.0445 26.6667 16.0001 26.6667Z" fill="#1E2939"/>
</svg>
