<svg width="32" height="32" viewBox="0 0 32 32" fill="none" xmlns="http://www.w3.org/2000/svg">
<path d="M13.3333 25.3334L7.26659 28.3667C6.82214 28.589 6.38881 28.5723 5.96659 28.3167C5.54436 28.0612 5.33325 27.6779 5.33325 27.1667V10.6667C5.33325 9.93341 5.59436 9.30564 6.11659 8.78341C6.63881 8.26119 7.26659 8.00008 7.99992 8.00008H18.6666C19.3999 8.00008 20.0277 8.26119 20.5499 8.78341C21.0721 9.30564 21.3333 9.93341 21.3333 10.6667V27.1667C21.3333 27.6779 21.1221 28.0612 20.6999 28.3167C20.2777 28.5723 19.8444 28.589 19.3999 28.3667L13.3333 25.3334ZM7.99992 25.3001L12.0666 23.1001C12.4666 22.8779 12.8888 22.7667 13.3333 22.7667C13.7777 22.7667 14.1999 22.8779 14.5999 23.1001L18.6666 25.3001V10.6667H7.99992V25.3001ZM24.3833 23.6167C24.1277 23.3612 23.9999 23.0445 23.9999 22.6667V5.33341H10.6666C10.2888 5.33341 9.97214 5.20564 9.71659 4.95008C9.46103 4.69453 9.33325 4.37786 9.33325 4.00008C9.33325 3.6223 9.46103 3.30564 9.71659 3.05008C9.97214 2.79453 10.2888 2.66675 10.6666 2.66675H23.9999C24.7333 2.66675 25.361 2.92786 25.8833 3.45008C26.4055 3.9723 26.6666 4.60008 26.6666 5.33341V22.6667C26.6666 23.0445 26.5388 23.3612 26.2833 23.6167C26.0277 23.8723 25.711 24.0001 25.3333 24.0001C24.9555 24.0001 24.6388 23.8723 24.3833 23.6167Z" fill="#1E2939"/>
</svg>
