<svg width="32" height="32" viewBox="0 0 32 32" fill="none" xmlns="http://www.w3.org/2000/svg">
<path d="M14.3999 16L19.5999 21.2C19.8444 21.4444 19.9666 21.7555 19.9666 22.1333C19.9666 22.5111 19.8444 22.8222 19.5999 23.0667C19.3555 23.3111 19.0444 23.4333 18.6666 23.4333C18.2888 23.4333 17.9777 23.3111 17.7333 23.0667L11.5999 16.9333C11.4666 16.8 11.3722 16.6555 11.3166 16.5C11.2611 16.3444 11.2333 16.1778 11.2333 16C11.2333 15.8222 11.2611 15.6555 11.3166 15.5C11.3722 15.3444 11.4666 15.2 11.5999 15.0667L17.7333 8.93332C17.9777 8.68887 18.2888 8.56665 18.6666 8.56665C19.0444 8.56665 19.3555 8.68887 19.5999 8.93332C19.8444 9.17776 19.9666 9.48887 19.9666 9.86665C19.9666 10.2444 19.8444 10.5555 19.5999 10.8L14.3999 16Z" fill="#1E2939"/>
</svg>
