<svg width="32" height="32" viewBox="0 0 32 32" fill="none" xmlns="http://www.w3.org/2000/svg">
<path d="M20.2334 11.1C20.8779 11.7445 21.3501 12.4778 21.6501 13.3C21.9501 14.1223 22.0556 14.9667 21.9667 15.8334C21.9667 16.1667 21.8445 16.45 21.6001 16.6834C21.3556 16.9167 21.0667 17.0334 20.7334 17.0334C20.4001 17.0334 20.1167 16.9167 19.8834 16.6834C19.6501 16.45 19.5334 16.1667 19.5334 15.8334C19.6445 15.2556 19.6112 14.7 19.4334 14.1667C19.2556 13.6334 18.9779 13.1778 18.6001 12.8C18.2223 12.4223 17.7667 12.1334 17.2334 11.9334C16.7001 11.7334 16.1334 11.6889 15.5334 11.8C15.2001 11.8 14.9167 11.6778 14.6834 11.4334C14.4501 11.1889 14.3334 10.9 14.3334 10.5667C14.3334 10.2334 14.4501 9.95005 14.6834 9.71672C14.9167 9.48338 15.2001 9.36672 15.5334 9.36672C16.3779 9.27783 17.2112 9.38338 18.0334 9.68338C18.8556 9.98338 19.589 10.4556 20.2334 11.1ZM16.0001 8.00005C15.5779 8.00005 15.1667 8.01672 14.7667 8.05005C14.3667 8.08338 13.9667 8.14449 13.5667 8.23338C13.189 8.30005 12.8501 8.24449 12.5501 8.06672C12.2501 7.88894 12.0445 7.62227 11.9334 7.26672C11.8223 6.91116 11.8612 6.56672 12.0501 6.23338C12.239 5.90005 12.5112 5.70005 12.8667 5.63338C13.3779 5.52227 13.8945 5.44449 14.4167 5.40005C14.939 5.3556 15.4667 5.33338 16.0001 5.33338C19.0445 5.33338 21.8279 6.13338 24.3501 7.73338C26.8723 9.33338 28.8001 11.4889 30.1334 14.2C30.2223 14.3778 30.289 14.5612 30.3334 14.75C30.3779 14.9389 30.4001 15.1334 30.4001 15.3334C30.4001 15.5334 30.3834 15.7278 30.3501 15.9167C30.3167 16.1056 30.2556 16.2889 30.1667 16.4667C29.7668 17.3556 29.2723 18.1889 28.6834 18.9667C28.0945 19.7445 27.4445 20.4556 26.7334 21.1C26.4667 21.3445 26.1556 21.4445 25.8001 21.4C25.4445 21.3556 25.1556 21.1778 24.9334 20.8667C24.7112 20.5556 24.6167 20.2167 24.6501 19.85C24.6834 19.4834 24.8334 19.1778 25.1001 18.9334C25.6334 18.4223 26.1223 17.8667 26.5667 17.2667C27.0112 16.6667 27.4001 16.0223 27.7334 15.3334C26.6223 13.0889 25.0167 11.3056 22.9167 9.98338C20.8167 8.66116 18.5112 8.00005 16.0001 8.00005ZM16.0001 25.3334C13.0223 25.3334 10.3001 24.5278 7.83342 22.9167C5.36675 21.3056 3.4223 19.1889 2.00008 16.5667C1.88897 16.3889 1.80564 16.1945 1.75008 15.9834C1.69453 15.7723 1.66675 15.5556 1.66675 15.3334C1.66675 15.1112 1.68897 14.9 1.73341 14.7C1.77786 14.5 1.85564 14.3 1.96675 14.1C2.41119 13.2112 2.92786 12.3612 3.51675 11.55C4.10564 10.7389 4.77786 10 5.53341 9.33338L2.76675 6.53338C2.5223 6.26672 2.40564 5.95005 2.41675 5.58338C2.42786 5.21672 2.55564 4.91116 2.80008 4.66672C3.04453 4.42227 3.35564 4.30005 3.73341 4.30005C4.11119 4.30005 4.4223 4.42227 4.66675 4.66672L27.3334 27.3334C27.5779 27.5778 27.7056 27.8834 27.7167 28.25C27.7279 28.6167 27.6001 28.9334 27.3334 29.2001C27.089 29.4445 26.7779 29.5667 26.4001 29.5667C26.0223 29.5667 25.7112 29.4445 25.4667 29.2001L20.8001 24.6C20.0223 24.8445 19.2334 25.0278 18.4334 25.15C17.6334 25.2723 16.8223 25.3334 16.0001 25.3334ZM7.40008 11.2C6.75564 11.7778 6.16675 12.4112 5.63341 13.1C5.10008 13.7889 4.64453 14.5334 4.26675 15.3334C5.37786 17.5778 6.98342 19.3612 9.08342 20.6834C11.1834 22.0056 13.489 22.6667 16.0001 22.6667C16.4445 22.6667 16.8779 22.6389 17.3001 22.5834C17.7223 22.5278 18.1556 22.4667 18.6001 22.4L17.4001 21.1334C17.1556 21.2001 16.9223 21.25 16.7001 21.2834C16.4779 21.3167 16.2445 21.3334 16.0001 21.3334C14.3334 21.3334 12.9167 20.75 11.7501 19.5834C10.5834 18.4167 10.0001 17 10.0001 15.3334C10.0001 15.0889 10.0167 14.8556 10.0501 14.6334C10.0834 14.4112 10.1334 14.1778 10.2001 13.9334L7.40008 11.2Z" fill="#1E2939"/>
</svg>
