<svg width="32" height="32" viewBox="0 0 32 32" fill="none" xmlns="http://www.w3.org/2000/svg">
<path d="M20.25 19.5833C21.4166 18.4166 22 16.9999 22 15.3333C22 13.6666 21.4166 12.2499 20.25 11.0833C19.0833 9.91659 17.6666 9.33325 16 9.33325C14.3333 9.33325 12.9166 9.91659 11.75 11.0833C10.5833 12.2499 9.99995 13.6666 9.99995 15.3333C9.99995 16.9999 10.5833 18.4166 11.75 19.5833C12.9166 20.7499 14.3333 21.3333 16 21.3333C17.6666 21.3333 19.0833 20.7499 20.25 19.5833ZM13.45 17.8833C12.75 17.1833 12.4 16.3333 12.4 15.3333C12.4 14.3333 12.75 13.4833 13.45 12.7833C14.15 12.0833 15 11.7333 16 11.7333C17 11.7333 17.85 12.0833 18.55 12.7833C19.25 13.4833 19.6 14.3333 19.6 15.3333C19.6 16.3333 19.25 17.1833 18.55 17.8833C17.85 18.5833 17 18.9333 16 18.9333C15 18.9333 14.15 18.5833 13.45 17.8833ZM7.84995 22.9333C5.3944 21.3333 3.45551 19.2221 2.03328 16.5999C1.92217 16.3999 1.83884 16.1944 1.78328 15.9833C1.72773 15.7721 1.69995 15.5555 1.69995 15.3333C1.69995 15.111 1.72773 14.8944 1.78328 14.6833C1.83884 14.4721 1.92217 14.2666 2.03328 14.0666C3.45551 11.4444 5.3944 9.33325 7.84995 7.73325C10.3055 6.13325 13.0222 5.33325 16 5.33325C18.9777 5.33325 21.6944 6.13325 24.15 7.73325C26.6055 9.33325 28.5444 11.4444 29.9666 14.0666C30.0777 14.2666 30.1611 14.4721 30.2166 14.6833C30.2722 14.8944 30.3 15.111 30.3 15.3333C30.3 15.5555 30.2722 15.7721 30.2166 15.9833C30.1611 16.1944 30.0777 16.3999 29.9666 16.5999C28.5444 19.2221 26.6055 21.3333 24.15 22.9333C21.6944 24.5333 18.9777 25.3333 16 25.3333C13.0222 25.3333 10.3055 24.5333 7.84995 22.9333ZM22.9166 20.6833C25.0166 19.361 26.6222 17.5777 27.7333 15.3333C26.6222 13.0888 25.0166 11.3055 22.9166 9.98325C20.8166 8.66103 18.5111 7.99992 16 7.99992C13.4888 7.99992 11.1833 8.66103 9.08328 9.98325C6.98328 11.3055 5.37773 13.0888 4.26662 15.3333C5.37773 17.5777 6.98328 19.361 9.08328 20.6833C11.1833 22.0055 13.4888 22.6666 16 22.6666C18.5111 22.6666 20.8166 22.0055 22.9166 20.6833Z" fill="#1E2939"/>
</svg>
